<svg width="40" height="40" viewBox="0 0 40 40" fill="none" xmlns="http://www.w3.org/2000/svg">
<path d="M0 16C0 7.16344 7.16344 0 16 0H23.9844C32.8209 0 39.9844 7.16344 39.9844 16V23.9844C39.9844 32.8209 32.8209 39.9844 23.9844 39.9844H16C7.16344 39.9844 0 32.8209 0 23.9844V16Z" fill="#C89B2A"/>
<g clip-path="url(#clip0_159_119)">
<path d="M29.4122 18.9142C29.5912 18.8352 29.7431 18.7055 29.8491 18.541C29.9551 18.3765 30.0105 18.1846 30.0085 17.9889C30.0065 17.7933 29.9471 17.6025 29.8377 17.4403C29.7284 17.278 29.5738 17.1514 29.3932 17.0762L20.8222 13.1722C20.5616 13.0533 20.2786 12.9918 19.9922 12.9918C19.7058 12.9918 19.4228 13.0533 19.1622 13.1722L10.5922 17.0722C10.4142 17.1502 10.2627 17.2783 10.1564 17.441C10.05 17.6037 9.99337 17.7938 9.99337 17.9882C9.99337 18.1825 10.05 18.3727 10.1564 18.5354C10.2627 18.6981 10.4142 18.8262 10.5922 18.9042L19.1622 22.8122C19.4228 22.931 19.7058 22.9925 19.9922 22.9925C20.2786 22.9925 20.5616 22.931 20.8222 22.8122L29.4122 18.9142Z" stroke="white" stroke-width="2" stroke-linecap="round" stroke-linejoin="round"/>
<path d="M29.9922 17.9922V23.9922" stroke="white" stroke-width="2" stroke-linecap="round" stroke-linejoin="round"/>
<path d="M13.9922 20.4922V23.9922C13.9922 24.7878 14.6243 25.5509 15.7495 26.1135C16.8748 26.6761 18.4009 26.9922 19.9922 26.9922C21.5835 26.9922 23.1096 26.6761 24.2348 26.1135C25.36 25.5509 25.9922 24.7878 25.9922 23.9922V20.4922" stroke="white" stroke-width="2" stroke-linecap="round" stroke-linejoin="round"/>
</g>
<defs>
<clipPath id="clip0_159_119">
<rect width="24" height="24" fill="white" transform="translate(7.99219 7.99219)"/>
</clipPath>
</defs>
</svg>
