<svg width="40" height="40" viewBox="0 0 40 40" fill="none" xmlns="http://www.w3.org/2000/svg">
<path d="M0 12C0 5.37258 5.37258 0 12 0H27.4531C34.0805 0 39.4531 5.37258 39.4531 12V28C39.4531 34.6274 34.0805 40 27.4531 40H12C5.37258 40 0 34.6274 0 28V12Z" fill="#1B2E5E"/>
<path d="M29.1388 18.922C29.3178 18.843 29.4697 18.7133 29.5757 18.5488C29.6817 18.3843 29.7371 18.1924 29.7351 17.9967C29.7331 17.8011 29.6737 17.6103 29.5643 17.4481C29.4549 17.2858 29.3004 17.1593 29.1197 17.084L20.5487 13.18C20.2882 13.0611 20.0051 12.9996 19.7188 12.9996C19.4324 12.9996 19.1493 13.0611 18.8888 13.18L10.3188 17.08C10.1407 17.158 9.98927 17.2861 9.88292 17.4488C9.77657 17.6115 9.71993 17.8016 9.71993 17.996C9.71993 18.1904 9.77657 18.3805 9.88292 18.5432C9.98927 18.7059 10.1407 18.834 10.3188 18.912L18.8888 22.82C19.1493 22.9388 19.4324 23.0004 19.7188 23.0004C20.0051 23.0004 20.2882 22.9388 20.5487 22.82L29.1388 18.922Z" stroke="white" stroke-width="2" stroke-linecap="round" stroke-linejoin="round"/>
<path d="M29.7188 18V24" stroke="white" stroke-width="2" stroke-linecap="round" stroke-linejoin="round"/>
<path d="M13.7188 20.5V24C13.7188 24.7956 14.3509 25.5587 15.4761 26.1213C16.6013 26.6839 18.1275 27 19.7188 27C21.31 27 22.8362 26.6839 23.9614 26.1213C25.0866 25.5587 25.7188 24.7956 25.7188 24V20.5" stroke="white" stroke-width="2" stroke-linecap="round" stroke-linejoin="round"/>
</svg>
