<svg width="40" height="40" viewBox="0 0 40 40" fill="none" xmlns="http://www.w3.org/2000/svg">
<path d="M0 12C0 5.37258 5.37258 0 12 0H28C34.6274 0 40 5.37258 40 12V28C40 34.6274 34.6274 40 28 40H12C5.37258 40 0 34.6274 0 28V12Z" fill="white" fill-opacity="0.1"/>
<path d="M29.42 18.9221C29.599 18.8431 29.7509 18.7134 29.8569 18.5489C29.9629 18.3845 30.0183 18.1925 30.0163 17.9969C30.0143 17.8012 29.9549 17.6104 29.8456 17.4482C29.7362 17.286 29.5816 17.1594 29.401 17.0841L20.83 13.1801C20.5694 13.0613 20.2864 12.9998 20 12.9998C19.7136 12.9998 19.4306 13.0613 19.17 13.1801L10.6 17.0801C10.422 17.1581 10.2705 17.2862 10.1642 17.4489C10.0578 17.6116 10.0012 17.8018 10.0012 17.9961C10.0012 18.1905 10.0578 18.3806 10.1642 18.5433C10.2705 18.706 10.422 18.8341 10.6 18.9121L19.17 22.8201C19.4306 22.939 19.7136 23.0005 20 23.0005C20.2864 23.0005 20.5694 22.939 20.83 22.8201L29.42 18.9221Z" stroke="white" stroke-width="2" stroke-linecap="round" stroke-linejoin="round"/>
<path d="M30 18V24" stroke="white" stroke-width="2" stroke-linecap="round" stroke-linejoin="round"/>
<path d="M14 20.5V24C14 24.7956 14.6321 25.5587 15.7574 26.1213C16.8826 26.6839 18.4087 27 20 27C21.5913 27 23.1174 26.6839 24.2426 26.1213C25.3679 25.5587 26 24.7956 26 24V20.5" stroke="white" stroke-width="2" stroke-linecap="round" stroke-linejoin="round"/>
</svg>
